<mxfile host="app.diagrams.net" modified="2023-12-14T01:02:03.588Z" agent="Mozilla/5.0 (Windows NT 10.0; Win64; x64) AppleWebKit/537.36 (KHTML, like Gecko) Chrome/120.0.0.0 Safari/537.36" etag="I-eZJW92vzeqFKPb9afP" version="22.1.8" type="device">
  <diagram name="Page-1" id="xsSruUgPeovL4ufKfcns">
    <mxGraphModel dx="1396" dy="756" grid="1" gridSize="10" guides="1" tooltips="1" connect="1" arrows="1" fold="1" page="1" pageScale="1" pageWidth="850" pageHeight="1100" math="0" shadow="0">
      <root>
        <mxCell id="0" />
        <mxCell id="1" parent="0" />
        <mxCell id="0U2Xm9qcCtTUxHaIQkYP-6" value="NASA Mission Control Project" style="swimlane;whiteSpace=wrap;html=1;" vertex="1" parent="1">
          <mxGeometry x="-195" y="130" width="390" height="180" as="geometry" />
        </mxCell>
        <mxCell id="0U2Xm9qcCtTUxHaIQkYP-2" value="Node API" style="whiteSpace=wrap;html=1;aspect=fixed;rounded=1;glass=0;shadow=0;fillColor=#dae8fc;strokeColor=#6c8ebf;" vertex="1" parent="0U2Xm9qcCtTUxHaIQkYP-6">
          <mxGeometry x="285" y="60" width="80" height="80" as="geometry" />
        </mxCell>
        <mxCell id="0U2Xm9qcCtTUxHaIQkYP-1" value="Web Application" style="whiteSpace=wrap;html=1;aspect=fixed;rounded=1;fillColor=#dae8fc;strokeColor=#6c8ebf;" vertex="1" parent="0U2Xm9qcCtTUxHaIQkYP-6">
          <mxGeometry x="35" y="60" width="80" height="80" as="geometry" />
        </mxCell>
        <mxCell id="0U2Xm9qcCtTUxHaIQkYP-3" value="" style="endArrow=classic;html=1;rounded=0;edgeStyle=orthogonalEdgeStyle;entryX=0;entryY=0.5;entryDx=0;entryDy=0;exitX=1;exitY=0.5;exitDx=0;exitDy=0;" edge="1" parent="0U2Xm9qcCtTUxHaIQkYP-6" source="0U2Xm9qcCtTUxHaIQkYP-1" target="0U2Xm9qcCtTUxHaIQkYP-2">
          <mxGeometry relative="1" as="geometry">
            <mxPoint x="235" y="100" as="sourcePoint" />
            <mxPoint x="335" y="100" as="targetPoint" />
          </mxGeometry>
        </mxCell>
        <mxCell id="0U2Xm9qcCtTUxHaIQkYP-4" value="HTTP" style="edgeLabel;resizable=0;html=1;align=center;verticalAlign=middle;" connectable="0" vertex="1" parent="0U2Xm9qcCtTUxHaIQkYP-3">
          <mxGeometry relative="1" as="geometry">
            <mxPoint as="offset" />
          </mxGeometry>
        </mxCell>
      </root>
    </mxGraphModel>
  </diagram>
</mxfile>
